# xmcd
#
# Track frame offsets:
#      150
#      15121
#      31666
#      45798
#      62630
#      79734
#      91926
#      104030
#      119091
#      135935
#      149607
#      162707
#      178532
#      195476
#      209187
#      229122
#      242445
# 
# Disc length: 3375 seconds
#
# Revision: 2
# Processed by: cddbd v1.4PL0 Copyright (c) Steve Scherf et al.
#
# Submitted via: FreeRIP 1.20
#
DISCID=e00d2d11
DTITLE=Delbert McClinton - Livin It Down
DYEAR=1900
DGENRE=Country
TTITLE0=DELBERT MCCLINTON-I WANNA THANK YOU BABY
TTITLE1=TANYA TUCKER and DELBERT MCCLINTON - TELL ME ABOUT IT
TTITLE2=MCCLINTON, DELBERT - BEFORE YOU ACCUSE ME
TTITLE3=DELBERT MCCLINTON - MAYBE SOMEDAY
TTITLE4=DELBERT MCCLINTON - GIVIN' IT UP FOR YOUR LOVE
TTITLE5=DELBERT MCCLINTON - WHO'S FOOLIN' WHO
TTITLE6=DELBERT MCCLINTON - NOTHING PERSONAL - 01 - LIVIN IT DOWN
TTITLE7=DELBERT MCCLINTON - THE REAL THING
TTITLE8=DELBERT MCCLINTON - MEMPHIS WOMEN
TTITLE9=DELBERT MCCLINTON - TWO MORE BOTTLES OF WINE
TTITLE10=DELBERT MCCLINTON - NOTHING PERSONAL - 04 - SQUEEZE ME IN
TTITLE11=DELBERT MCCLINTON - CAN I CHANGE MY MIND
TTITLE12=DELBERT MCCLINTON - SENDING ME ANGELS
TTITLE13=DELBERT MCCLINTON - YOU'RE THE REASON OUR KIDS ARE UGLY
TTITLE14=DELBERT MCCLINTON- EVERYTIME I ROLL THE DICE
TTITLE15=DELBERT MCCLINTON - CEASE AND DESIST
TTITLE16=DELBERT MCCLINTON - ULTIMATE COLLECTION - 05 - VICTIM OF~AE8
EXTD=
EXTT0=
EXTT1=
EXTT2=
EXTT3=
EXTT4=
EXTT5=
EXTT6=
EXTT7=
EXTT8=
EXTT9=
EXTT10=
EXTT11=
EXTT12=
EXTT13=
EXTT14=
EXTT15=
EXTT16=
PLAYORDER=
